<?xml version="1.0" encoding="UTF-8"?>
<svg id="Layer_2" data-name="Layer 2" xmlns="http://www.w3.org/2000/svg" viewBox="0 0 158.21 22">
  <defs>
    <style>
      .cls-1 {
        fill: #252f4a;
      }

      .cls-2 {
        fill: #e9e9e9;
      }

      .cls-3 {
        fill: #f8285a;
      }
    </style>
  </defs>
  <g id="Layer_1-2" data-name="Layer 1">
    <g>
      <path class="cls-1" d="M46.14,5.57c-.65-.35-1.42-.52-2.31-.52h-4.87v11.89h2.82v-3.71h1.97c.91,0,1.69-.17,2.35-.51.66-.34,1.17-.81,1.52-1.42.36-.61.53-1.32.53-2.14s-.17-1.53-.52-2.15c-.35-.62-.85-1.1-1.5-1.44ZM45.01,10.13c-.15.28-.37.49-.67.65-.3.15-.67.23-1.11.23h-1.46v-3.67h1.45c.44,0,.81.07,1.11.22.3.15.53.36.67.63.15.27.22.6.22.97s-.07.69-.22.97Z"/>
      <path class="cls-1" d="M57.88,5.6c-.85-.47-1.81-.71-2.88-.71s-2.03.24-2.89.71c-.85.47-1.53,1.17-2.03,2.07-.5.91-.75,2.02-.75,3.33s.25,2.4.75,3.31c.5.91,1.18,1.6,2.03,2.08.85.47,1.82.71,2.89.71s2.02-.24,2.88-.71c.85-.47,1.53-1.16,2.03-2.07.5-.91.75-2.02.75-3.32s-.25-2.42-.75-3.33c-.5-.91-1.17-1.6-2.03-2.07ZM57.44,12.99c-.22.54-.54.95-.96,1.22-.41.28-.91.41-1.48.41s-1.08-.14-1.49-.42c-.41-.28-.73-.69-.96-1.23-.22-.54-.34-1.2-.34-1.98s.11-1.45.34-1.99c.22-.54.54-.95.96-1.23.42-.28.91-.42,1.49-.42s1.07.14,1.48.42c.42.28.73.69.96,1.23.22.54.34,1.21.34,2s-.11,1.44-.34,1.98Z"/>
      <path class="cls-1" d="M69.38,12.4c.66-.3,1.17-.74,1.52-1.31.36-.58.53-1.27.53-2.09s-.17-1.51-.52-2.1c-.35-.59-.85-1.05-1.5-1.37-.65-.32-1.42-.48-2.31-.48h-4.87v11.89h2.82v-4.09h1.53l2.18,4.09h3.09l-2.48-4.54s0,0,0,0ZM65.06,7.34h1.45c.44,0,.81.06,1.11.19.3.12.52.31.67.55.15.24.23.55.23.93s-.08.67-.23.91c-.15.24-.37.42-.67.53-.3.12-.66.18-1.11.18h-1.46v-3.29Z"/>
      <polygon class="cls-1" points="82.67 5.05 72.66 5.05 72.66 7.35 76.26 7.35 76.26 16.95 79.07 16.95 79.07 7.35 82.67 7.35 82.67 5.05"/>
      <path class="cls-1" d="M86.06,5.05l-3.97,11.89h3.13l.78-2.53h3.96l.8,2.53h3.16l-4.09-11.89h-3.77ZM86.66,12.26l.16-.51c.25-.86.49-1.78.71-2.76.13-.56.26-1.13.39-1.71.14.57.28,1.16.42,1.7.25.98.5,1.9.77,2.77l.16.51h-2.61Z"/>
      <polygon class="cls-1" points="98.04 5.05 95.22 5.05 95.22 16.95 103.01 16.95 103.01 14.65 98.04 14.65 98.04 5.05"/>
      <polygon class="cls-1" points="108.04 16.95 110.86 16.95 110.86 12.62 115.61 12.62 115.61 10.37 110.86 10.37 110.86 7.35 116.13 7.35 116.13 5.05 108.04 5.05 108.04 16.95"/>
      <path class="cls-1" d="M125.29,9.68c-.08.29-.18.66-.29,1.13-.11.46-.22.96-.33,1.5-.09.46-.18.9-.26,1.34-.08-.44-.17-.88-.27-1.34-.11-.53-.22-1.03-.33-1.5-.11-.47-.21-.84-.29-1.12l-1.52-4.63h-4.39v11.89h2.82v-5.12c0-.27,0-.62-.02-1.03-.01-.42-.03-.87-.04-1.37-.01-.5-.03-.99-.04-1.48,0-.16,0-.28,0-.43.04.18.08.35.13.53.13.51.26,1,.38,1.48.13.48.25.92.37,1.32.12.4.22.73.3.99l1.72,5.12h2.35l1.69-5.12c.08-.27.18-.6.29-1,.11-.4.23-.84.36-1.32.13-.48.25-.97.37-1.48.06-.23.1-.45.15-.68,0,.2,0,.39,0,.6-.01.5-.03.99-.04,1.48s-.03.94-.04,1.36c-.01.42-.02.76-.02,1.03v5.12h2.83V5.05h-4.4l-1.49,4.63Z"/>
      <rect class="cls-1" x="133.03" y="5.05" width="2.82" height="11.89"/>
      <path class="cls-1" d="M146.38,7.02c-.35-.62-.85-1.1-1.5-1.44-.65-.35-1.42-.52-2.31-.52h-4.87v11.89h2.82v-3.71h1.97c.91,0,1.69-.17,2.35-.51.66-.34,1.17-.81,1.52-1.42.36-.61.53-1.32.53-2.14s-.17-1.53-.52-2.15ZM143.75,10.13c-.15.28-.37.49-.67.65-.3.15-.67.23-1.11.23h-1.46v-3.67h1.45c.44,0,.81.07,1.11.22.3.15.53.36.67.63.15.27.22.6.22.97s-.07.69-.22.97Z"/>
      <path class="cls-1" d="M155.05,16.95h3.16l-4.09-11.89h-3.77l-3.97,11.89h3.13l.78-2.53h3.96l.8,2.53ZM150.95,12.26l.16-.51c.25-.86.49-1.78.71-2.76.13-.56.26-1.13.39-1.71.14.57.28,1.16.42,1.7.25.98.5,1.9.77,2.77l.16.51h-2.61Z"/>
    </g>
    <g>
      <path class="cls-3" d="M24.44,2.07l5.58,17.15c.42,1.29-.54,2.62-1.9,2.62h-3.57c-1.31,0-2.46-.85-2.86-2.09L16.4,3.13c-.49-1.55.66-3.13,2.29-3.13h2.89c1.3,0,2.45.84,2.85,2.07Z"/>
      <path class="cls-2" d="M17.55,14.53L13.49,1.53c-.28-.91-1.13-1.53-2.09-1.53s-1.7.73-1.75,1.66l-.48,9.48c-.05.91.06,1.83.33,2.7l1.97,6.58c.25.85,1.03,1.43,1.92,1.43h1.51c.87,0,1.64-.56,1.91-1.39l.73-2.3c.37-1.17.38-2.43.01-3.61Z"/>
      <path class="cls-3" d="M8.23,0h3.11c1.62,0,2.77,1.57,2.29,3.11l-5.23,16.78c-.39,1.25-1.55,2.11-2.86,2.11h-3.53c-1.34,0-2.3-1.3-1.91-2.58L5.36,2.13c.38-1.26,1.55-2.13,2.87-2.13Z"/>
    </g>
  </g>
</svg>