<?xml version="1.0" encoding="UTF-8"?>
<svg id="Layer_2" data-name="Layer 2" xmlns="http://www.w3.org/2000/svg" xmlns:xlink="http://www.w3.org/1999/xlink" viewBox="0 0 159.53 29.46">
  <defs>
    <style>
      .cls-1 {
        fill: #252f4a;
      }
    </style>
  </defs>
  <g id="Layer_1-2" data-name="Layer 1">
    <g>
      <path class="cls-1" d="M47.46,11.31c-.65-.35-1.42-.52-2.31-.52h-4.87v11.89h2.82v-3.71h1.97c.91,0,1.69-.17,2.35-.51.66-.34,1.17-.81,1.52-1.42.36-.61.53-1.32.53-2.14s-.17-1.53-.52-2.15c-.35-.62-.85-1.1-1.5-1.44ZM46.33,15.86c-.15.28-.37.49-.67.65-.3.15-.67.23-1.11.23h-1.46v-3.67h1.45c.44,0,.81.07,1.11.22.3.15.53.36.67.63.15.27.22.6.22.97s-.07.69-.22.97Z"/>
      <path class="cls-1" d="M59.2,11.34c-.85-.47-1.81-.71-2.88-.71s-2.03.24-2.89.71c-.85.47-1.53,1.17-2.03,2.07-.5.91-.75,2.02-.75,3.33s.25,2.4.75,3.31c.5.91,1.18,1.6,2.03,2.08.85.47,1.82.71,2.89.71s2.02-.24,2.88-.71c.85-.47,1.53-1.16,2.03-2.07.5-.91.75-2.02.75-3.32s-.25-2.42-.75-3.33c-.5-.91-1.17-1.6-2.03-2.07ZM58.77,18.72c-.22.54-.54.95-.96,1.22-.41.28-.91.41-1.48.41s-1.08-.14-1.49-.42c-.41-.28-.73-.69-.96-1.23-.22-.54-.34-1.2-.34-1.98s.11-1.45.34-1.99c.22-.54.54-.95.96-1.23.42-.28.91-.42,1.49-.42s1.07.14,1.48.42c.42.28.73.69.96,1.23.22.54.34,1.21.34,2s-.11,1.44-.34,1.98Z"/>
      <path class="cls-1" d="M70.71,18.14c.66-.3,1.17-.74,1.52-1.31.36-.58.53-1.27.53-2.09s-.17-1.51-.52-2.1c-.35-.59-.85-1.05-1.5-1.37-.65-.32-1.42-.48-2.31-.48h-4.87v11.89h2.82v-4.09h1.53l2.18,4.09h3.09l-2.48-4.54s0,0,0,0ZM66.38,13.07h1.45c.44,0,.81.06,1.11.19.3.12.52.31.67.55.15.24.23.55.23.93s-.08.67-.23.91c-.15.24-.37.42-.67.53-.3.12-.66.18-1.11.18h-1.46v-3.29Z"/>
      <polygon class="cls-1" points="83.99 10.79 73.99 10.79 73.99 13.09 77.59 13.09 77.59 22.68 80.39 22.68 80.39 13.09 83.99 13.09 83.99 10.79"/>
      <path class="cls-1" d="M87.39,10.79l-3.97,11.89h3.13l.78-2.53h3.96l.8,2.53h3.16l-4.09-11.89h-3.77ZM87.99,17.99l.16-.51c.25-.86.49-1.78.71-2.76.13-.56.26-1.13.39-1.71.14.57.28,1.16.42,1.7.25.98.5,1.9.77,2.77l.16.51h-2.61Z"/>
      <polygon class="cls-1" points="99.36 10.79 96.55 10.79 96.55 22.68 104.34 22.68 104.34 20.38 99.36 20.38 99.36 10.79"/>
      <polygon class="cls-1" points="109.36 22.68 112.18 22.68 112.18 18.35 116.93 18.35 116.93 16.1 112.18 16.1 112.18 13.09 117.45 13.09 117.45 10.79 109.36 10.79 109.36 22.68"/>
      <path class="cls-1" d="M126.61,15.42c-.08.29-.18.66-.29,1.13-.11.46-.22.96-.33,1.5-.09.46-.18.9-.26,1.34-.08-.44-.17-.88-.27-1.34-.11-.53-.22-1.03-.33-1.5-.11-.47-.21-.84-.29-1.12l-1.52-4.63h-4.39v11.89h2.82v-5.12c0-.27,0-.62-.02-1.03-.01-.42-.03-.87-.04-1.37-.01-.5-.03-.99-.04-1.48,0-.16,0-.28,0-.43.04.18.08.35.13.53.13.51.26,1,.38,1.48.13.48.25.92.37,1.32.12.4.22.73.3.99l1.72,5.12h2.35l1.69-5.12c.08-.27.18-.6.29-1,.11-.4.23-.84.36-1.32.13-.48.25-.97.37-1.48.06-.23.1-.45.15-.68,0,.2,0,.39,0,.6-.01.5-.03.99-.04,1.48s-.03.94-.04,1.36c-.01.42-.02.76-.02,1.03v5.12h2.83v-11.89h-4.4l-1.49,4.63Z"/>
      <rect class="cls-1" x="134.35" y="10.79" width="2.82" height="11.89"/>
      <path class="cls-1" d="M147.7,12.75c-.35-.62-.85-1.1-1.5-1.44-.65-.35-1.42-.52-2.31-.52h-4.87v11.89h2.82v-3.71h1.97c.91,0,1.69-.17,2.35-.51.66-.34,1.17-.81,1.52-1.42.36-.61.53-1.32.53-2.14s-.17-1.53-.52-2.15ZM145.08,15.86c-.15.28-.37.49-.67.65-.3.15-.67.23-1.11.23h-1.46v-3.67h1.45c.44,0,.81.07,1.11.22.3.15.53.36.67.63.15.27.22.6.22.97s-.07.69-.22.97Z"/>
      <path class="cls-1" d="M156.37,22.68h3.16l-4.09-11.89h-3.77l-3.97,11.89h3.13l.78-2.53h3.96l.8,2.53ZM152.27,17.99l.16-.51c.25-.86.49-1.78.71-2.76.13-.56.26-1.13.39-1.71.14.57.28,1.16.42,1.7.25.98.5,1.9.77,2.77l.16.51h-2.61Z"/>
    </g>
    <image width="2478" height="2424" transform="scale(.01)" xlink:href="unsulbar.png"/>
  </g>
</svg>